<?xml version="1.0" encoding="utf-8"?>
<!-- Generator: Adobe Illustrator 27.5.0, SVG Export Plug-In . SVG Version: 6.00 Build 0)  -->
<svg version="1.1" id="Layer_1" xmlns="http://www.w3.org/2000/svg" xmlns:xlink="http://www.w3.org/1999/xlink" x="0px" y="0px"
	 viewBox="0 0 3873 3873" style="enable-background:new 0 0 3873 3873;" xml:space="preserve">
<g id="Layer_x0020_1">
	<g id="_505114192">
		<g>
			<path id="_505099984" style="fill-rule:evenodd;clip-rule:evenodd;" d="M3263.1,2004.7h-228.5v-136.3h228.5
				c-7.1,21.3-11,44.1-11,67.8C3252,1960.5,3256,1983.4,3263.1,2004.7z M3319,1379.8h-505.9c-2.4,0-4.7,0-7.1,0l64.6-65.4
				l-68.6-69.3c3.2-0.8,7.1-0.8,11-0.8h506c41.8,0,76.4-34.7,76.4-76.4V1004c21.3,7.1,44.1,11,68.6,11c23.6,0,46.5-3.9,68.6-11
				v163.9C3531.8,1284.4,3436.4,1379.8,3319,1379.8z"/>
			<path id="_505099456" style="fill-rule:evenodd;clip-rule:evenodd;" d="M3395.5,2869.9V2706c0-41.8-33.9-76.4-76.4-76.4h-503.5
				l55.2-55.9l-78-79.6c3.2-0.8,7.1-0.8,11-0.8h516.1c117.4,0,212.8,95.3,212.8,212.8V2870c-21.3-7.1-44.1-11-68.6-11
				S3416.7,2862.8,3395.5,2869.9L3395.5,2869.9z"/>
			<path id="_505115608" style="fill-rule:evenodd;clip-rule:evenodd;" d="M838.4,2004.7H609.9c7.1-21.3,11-44.1,11-68.6
				c0-23.6-3.9-46.5-11-67.8h228.5v68.6V2004.7L838.4,2004.7z"/>
			<path id="_505114744" style="fill-rule:evenodd;clip-rule:evenodd;" d="M342,2869.9V2706c0-117.4,95.3-212.8,212.8-212.8h516.1
				c3.9,0,7.1,0,11,0.8l-78,79.6l55.2,55.9H555.5c-42.6,0-76.4,34.7-76.4,76.4v163.9c-21.3-7.1-44.1-11-67.8-11l0,0
				C386.1,2858.8,363.3,2862.8,342,2869.9L342,2869.9z"/>
			<path id="_505115176" style="fill-rule:evenodd;clip-rule:evenodd;" d="M1060.6,1379.8H554.7c-117.4,0-212.8-95.3-212.8-212.8
				v-163.9c21.3,7.1,44.1,11,68.6,11c23.6,0,46.5-3.9,68.6-11V1167c0,41.8,34.7,76.4,76.4,76.4h505.9c3.9,0,7.1,0,11,0.8l-68.6,69.3
				l64.6,65.4C1065.4,1379.8,1063,1379.8,1060.6,1379.8L1060.6,1379.8z"/>
		</g>
		<path id="_505115152" style="fill-rule:evenodd;clip-rule:evenodd;" d="M1814.7,1717c-62.3,0-113.5,51.2-113.5,113.5v73.3h226.9
			v-73.3C1928.2,1768.3,1877.8,1717,1814.7,1717L1814.7,1717z"/>
		<path id="_505115248" style="fill-rule:evenodd;clip-rule:evenodd;" d="M1936.9,1368.7c-311.3,0-564.2,257.7-564.2,575.2
			s252.9,575.2,564.2,575.2s564.2-257.7,564.2-575.2C2501.1,1626.4,2248.1,1368.7,1936.9,1368.7z M2171.7,2210.3v-531.9
			c0-22.1,18.1-40.2,40.2-40.2c22.1,0,40.2,18.1,40.2,40.2v531.9c0,22.1-18.1,40.2-40.2,40.2
			C2189.8,2249.7,2171.7,2231.6,2171.7,2210.3z M1814.7,1637.4c106.4,0,193.1,86.7,193.1,193.1v379c0,22.1-18.1,40.2-40.2,40.2
			s-40.2-18.1-40.2-40.2v-226.2h-226.9v226.2c0,22.1-18.1,40.2-40.2,40.2s-40.2-18.1-40.2-40.2v-266.3v-112.7
			C1621.7,1724.1,1708.4,1637.4,1814.7,1637.4L1814.7,1637.4z"/>
		<g>
			<path id="_505115200" style="fill-rule:evenodd;clip-rule:evenodd;" d="M1793.5,1072.5c0,18.9-13.4,34.7-31.5,38.6
				c-100.1,21.3-193.8,61.5-279.7,117.4c-15.8,10.2-37,7.9-50.4-5.5l-115-116.6l-203.3,206.5l115.8,117.4
				c13.4,13.4,15,33.9,5.5,49.6c-55.9,87.5-94.6,182.8-115.8,284.5c-3.9,18.1-20.5,31.5-38.6,31.5H918v139.5V2089h162.3
				c18.9,0,35.5,13.4,38.6,31.5c21.3,101.7,60.7,197.8,115.8,284.5c10.2,15.8,7.9,36.2-5.5,49.6L1113.4,2572l203.3,206.5l115-116.6
				c13.4-13.4,34.7-15.8,50.4-5.5c85.9,56.7,179.7,96.1,279.7,117.4c18.1,3.9,31.5,20.5,31.5,38.6v166.3h286.8v-166.3
				c0-18.9,13.4-34.7,31.5-38.6c100.1-21.3,193.8-61.5,279.7-117.4c15.8-10.2,37-7.9,50.4,5.5l115,116.6L2760,2572l-115.8-117.4
				c-13.4-13.4-15-33.9-5.5-49.6c55.9-87.5,94.6-182.8,115.8-284.5c3.9-18.1,20.5-31.5,38.6-31.5h162.3v-153.7v-139.5h-162.3
				c-18.9,0-35.5-13.4-38.6-31.5c-21.3-101.7-60.7-197.8-115.8-284.5c-10.2-15.8-7.9-36.2,5.5-49.6l115.8-117.4l-203-206.5
				L2442,1223c-13.4,13.4-34.7,15.8-50.4,5.5c-85.9-56.7-179.7-96.1-279.7-117.4c-18.1-3.9-31.5-20.5-31.5-38.6V906.2h-286.8v166.3
				H1793.5z M1292.3,1944c0-360.9,289.2-654.8,644.6-654.8s644.6,293.9,644.6,654.8s-289.2,654.8-644.6,654.8
				S1292.3,2304.9,1292.3,1944L1292.3,1944z"/>
			<g>
				<g>
					<path id="_505115392" style="fill-rule:evenodd;clip-rule:evenodd;" d="M3331.6,803c0,72.5,59.1,131.6,131.6,131.6
						s131.6-59.1,131.6-131.6s-59.1-131.6-131.6-131.6C3390.7,671.4,3331.6,730.5,3331.6,803z"/>
					<path id="_505114552" style="fill-rule:evenodd;clip-rule:evenodd;" d="M3463.2,1804.5c-72.5,0-131.6,59.1-131.6,131.6l0,0
						c0,72.5,59.1,131.6,131.6,131.6s131.6-59.1,131.6-131.6S3535.7,1804.5,3463.2,1804.5z"/>
					<path id="_505114024" style="fill-rule:evenodd;clip-rule:evenodd;" d="M3463.2,2938.4c-72.5,0-131.6,59.1-131.6,131.6
						s59.1,131.6,131.6,131.6s131.6-59.1,131.6-131.6S3535.7,2938.4,3463.2,2938.4z"/>
				</g>
				<g>
					<path id="_505114672" style="fill-rule:evenodd;clip-rule:evenodd;" d="M409.8,2938.4c-72.5,0-131.6,59.1-131.6,131.6
						s59.1,131.6,131.6,131.6s131.6-59.1,131.6-131.6S482.3,2938.4,409.8,2938.4L409.8,2938.4z"/>
					<path id="_505114144" style="fill-rule:evenodd;clip-rule:evenodd;" d="M278.2,803c0,72.5,59.1,131.6,131.6,131.6
						S541.4,875.5,541.4,803s-59.1-131.6-131.6-131.6S278.2,730.5,278.2,803z"/>
					<path id="_505114576" style="fill-rule:evenodd;clip-rule:evenodd;" d="M409.8,1804.5c-72.5,0-131.6,59.1-131.6,131.6
						s59.1,131.6,131.6,131.6s131.6-59.1,131.6-131.6S482.3,1804.5,409.8,1804.5z"/>
				</g>
			</g>
		</g>
	</g>
</g>
<rect style="fill:none;" width="3873" height="3873"/>
</svg>
