<?xml version="1.0" encoding="utf-8"?>
<!-- Generator: Adobe Illustrator 27.1.1, SVG Export Plug-In . SVG Version: 6.00 Build 0)  -->
<svg version="1.1" id="Layer_2" xmlns="http://www.w3.org/2000/svg" xmlns:xlink="http://www.w3.org/1999/xlink" x="0px" y="0px"
	 viewBox="0 0 1000 1000" style="enable-background:new 0 0 1000 1000;" xml:space="preserve">
<style type="text/css">
	.st0{fill:#010101;}
</style>
<path class="st0" d="M505.22,422.19c11.28,4.95,23.26,8.75,33.65,15.14c12.78,7.86,24.53,17.54,32.84,30.59
	c5.52,8.68,12.17,16.78,16.66,25.96c5.84,11.93,10.29,24.63,11.73,38.02c1.3,11.98,3.57,24.14,2.69,36.01
	c-1.27,17.1-4.81,34.05-7.83,50.99c-0.78,4.38-3.01,8.55-4.94,12.64c-1.29,2.74-0.64,4.08,1.84,5.56
	c11.79,7.02,23.51,14.15,35.19,21.36c8.99,5.54,17.91,11.2,26.8,16.9c2.34,1.5,4.46,3.36,6.01,4.54
	c-0.88-54.87-1.76-109.58-2.66-165.69c4.75,2.57,8.21,4.3,11.54,6.26c8.07,4.75,16.04,9.66,24.14,14.36c1.97,1.14,4.21,2,6.44,2.49
	c8.55,1.87,16.8,7.07,25.87,3.9c8.28-2.89,17.11-3.72,24.68-9.54c5.71-4.4,9.64-9.77,14.19-14.93c1.69-1.92,5.17-2.25,8.75-3.68
	c0,3.5,0,5.46,0,7.42c0,91.16-0.16,182.33,0.25,273.49c0.04,9.01-4.46,13.21-10.82,16.61c-21.12,11.3-43.89,12.59-67.06,9.63
	c-3.5-0.45-6.76-3.41-9.95-5.47c-6.06-3.91-12.04-7.96-17.98-12.07c-8.2-5.67-16.29-11.51-24.51-17.15
	c-5.11-3.51-10.39-6.78-15.59-10.17c-6.76-4.39-13.44-8.9-20.28-13.16c-9.76-6.08-19.66-11.95-29.46-17.98
	c-10.02-6.17-19.91-12.57-30.02-18.59c-6.28-3.73-12.8-7.08-19.37-10.28c-1.41-0.69-3.82-0.56-5.23,0.19
	c-8.28,4.39-16.37,9.13-24.6,13.61c-2.15,1.17-4.58,1.88-6.91,2.68c-9.28,3.21-18.45,6.83-27.89,9.45
	c-10.26,2.84-20.76,4.82-31.19,7.03c-23.46,4.98-47.25,4.85-70.91,2.84c-17.05-1.45-33.97-4.84-50.84-7.93
	c-7.01-1.29-13.99-3.49-20.57-6.25c-12.69-5.33-25.18-11.16-37.56-17.17c-7.21-3.5-14.41-7.25-20.94-11.84
	c-8.32-5.85-16.13-12.48-23.87-19.1c-9.09-7.78-17.03-16.58-24.44-26.08c-7.58-9.73-15.13-19.31-20.58-30.42
	c-4.77-9.74-9.75-19.38-14.35-29.2c-10.35-22.1-14.92-45.46-15.54-69.81c-0.27-10.3,0.19-20.5,3.75-29.99
	c2.36-6.29,7.01-11.8,11.04-17.37c8.77-12.12,22.08-16.75,35.79-18.99c8.53-1.39,17.68-0.03,26.41,1.13
	c7.82,1.04,15.43,3.61,23.18,5.3c3.89,0.85,5.05,3.25,5.58,6.92c2.5,17.16,4.87,34.35,8.08,51.39c1.85,9.8,4.33,19.67,8.1,28.87
	c4.68,11.43,10.38,22.56,16.75,33.15c5.44,9.03,12.01,17.5,18.95,25.47c4.37,5.03,10.19,8.86,15.62,12.89
	c5.4,4,10.87,8.04,16.77,11.22c9.38,5.06,19.5,8.21,29.86,11c17.53,4.72,35.25,5.42,52.78,2.41c11.36-1.95,22.42-6.53,33.16-11.02
	c11.34-4.74,20.63-12.85,28.64-22.07c8.65-9.95,14.3-21.46,18.14-34.28c5.33-17.79,5.52-35.65,2.63-53.49
	c-2.05-12.66-6.59-25-18.31-32.42c-7.24-4.58-15.53-4.4-23.68-2.51c-6.49,1.5-10.81,5.76-14.76,11.05
	c-10.38,13.92-8.77,29.36-5.95,44.75c1.28,7.01-0.25,11.6-5.64,16.17c-21.63,18.36-46.22,20.47-71.96,12.45
	c-9.67-3.01-18-9.65-24.93-17.76c-10.01-11.71-14.26-25.35-14.45-40.25c-0.13-10.09-0.02-20.48,2.24-30.21
	c2.15-9.26,6.84-18.03,11.14-26.65c4.82-9.66,11.56-18.1,20.43-24.36c6.74-4.75,13.71-9.53,21.25-12.7
	c12.22-5.13,24.99-8.96,37.77-12.88c-1.56,0-3.12,0-4.69,0c-90.33,0-180.66,0.01-270.99-0.02c-3.82,0-7.75,0.22-11.46-0.53
	c-17.43-3.53-28.18-14.93-29.6-34.36c-0.81-11.14-0.91-22.35,2.62-33.15c1.92-5.87,4.23-11.63,6.58-17.35
	c0.38-0.94,1.81-1.67,2.9-2.03c1.06-0.34,2.31-0.08,3.48-0.08c155.49,0,310.99,0,466.48,0c1.8,0,3.61,0,5.94,0
	c0,10.72-0.23,21.17,0.07,31.61c0.3,10.42,2.36,20.9,7.11,29.92c5.04,9.57,12.2,18.24,23.52,21.78c2.2,0.69,4.18,2.06,6.66,3.36
	c0.4,0.25,0.58,0.71,0.58,0.71c-34.66,0.04-69.32,0.09-104.82,0.03c-2.48-0.1-4.13-0.1-5.77-0.1c0,0.23-0.01,0.47-0.01,0.7
	C501.47,421.43,503.34,421.81,505.22,422.19z"/>
<path class="st0" d="M660,246.79c-6.07-7.48-7.47-20.43-4.05-28.67c2.86-6.89,8.35-10.83,14.25-14.83
	c5.28-3.57,11.87-5.04,16.11-10.4c1.2-1.52,3.99-1.75,5.99-2.68c7.67-3.57,15.01-8.26,23.04-10.52c8.92-2.5,22.93,3.67,28.94,15.02
	c4.01,7.57,11.79,12.28,21.44,11.92c7.64-0.29,15.31,0.04,22.94-0.4c9.16-0.52,15.2-5.56,19.57-13.61c2.01-3.7,5.57-6.92,9.12-9.34
	c9.46-6.44,24.06-4.83,32.99,2.44c3.13,2.55,7.47,3.55,10.97,5.74c10.72,6.7,23.11,11.33,31.37,21.14
	c4.58,5.44,5.98,13.42,4.07,20.76c-1.33,5.13-5.05,9.7-6.08,14.84c-1.04,5.21-1.52,11.38,0.31,16.14
	c3.24,8.39,7.46,16.8,13.09,23.73c4.48,5.52,10.74,10.91,19.15,10.16c7.15-0.64,13.39,1.57,19.01,5.51
	c7.96,5.59,11.61,13.63,11.59,23.25c-0.04,15.32,0.1,30.66-0.55,45.95c-0.44,10.3-6.03,17.06-15.64,21.78
	c-5.23,2.57-10.26,2.87-15.46,3.44c-10.22,1.11-16.99,6.24-21.17,15.6c-2.33,5.22-5.74,9.95-8.42,15.03
	c-1.13,2.14-1.83,4.57-2.4,6.95c-1.88,7.75,1.86,14.27,4.88,20.9c4.19,9.23,2.57,18.47-2.01,26.56c-2.48,4.38-8.08,7.16-12.62,10.15
	c-6.89,4.52-13.91,8.9-21.17,12.77c-10.11,5.38-19.58,13.05-32.38,10.2c-8.35-1.86-14.28-6.38-18.98-13.71
	c-4.1-6.4-9.69-12.12-18.34-12.28c-8.82-0.16-17.64-0.06-26.45-0.03c-5.8,0.02-10.63,2.06-14.2,6.83c-2.32,3.1-4.88,6.01-7.24,9.08
	c-8.98,11.69-28.13,13.87-39.8,4.76c-7.11-5.55-16.08-8.64-23.87-13.4c-6.86-4.2-14.35-8.21-19.47-14.11
	c-4.45-5.14-5.72-13.09-4.05-20.19c1.15-4.93,4.28-9.36,5.97-14.21c0.89-2.55,0.48-5.54,0.82-8.31c1.21-9.99-4.43-17.25-9.67-24.7
	c-0.64-0.91-0.89-2.07-1.42-3.06c-4.5-8.35-10.72-14.56-20.81-14.65c-8.28-0.07-16.04-2.31-22.03-7.41
	c-6.19-5.29-9.75-12.92-9.82-21.47c-0.12-14.33-0.07-28.66,0-43c0.07-16.25,15.05-28.95,29.47-28.24
	c11.08,0.55,17.94-6.12,23.2-14.97c3.22-5.42,6.53-10.78,9.77-16.19c0.33-0.55,0.63-1.24,0.63-1.86
	C660.48,259.19,660.34,253.16,660,246.79 M839.15,300.91c-9.71-15.46-25.03-23.72-41.33-29.18c-12.11-4.05-25.37-4.56-38.28-1.39
	c-2.55,0.63-5.46,0.36-7.74,1.47c-6.38,3.09-12.77,6.32-18.69,10.2c-5.27,3.45-10.15,7.61-14.75,11.93
	c-3.06,2.87-5.53,6.43-7.9,9.93c-2.94,4.33-6.17,8.66-8.07,13.46c-1.88,4.75-1.94,10.18-3.38,15.15
	c-3.79,13.04-1.79,25.85,1.09,38.64c0.67,2.97,1.35,6.12,2.86,8.69c4.63,7.87,7.76,16.73,15.67,22.47
	c5.19,3.77,9.39,8.96,14.72,12.46c5.24,3.44,11.19,6.04,17.14,8.13c5.82,2.05,11.96,3.85,18.07,4.29
	c17.22,1.23,33.18-2.89,48.36-11.53c7.6-4.33,13.54-10.17,19.06-16.3c9.07-10.07,15.66-21.94,16.91-35.76
	c0.7-7.76,3.66-15.07,1.55-23.53c-2.82-11.31-4.17-22.93-10.9-32.87C842.23,305.23,840.65,303.51,839.15,300.91z"/>
</svg>
