<svg width="24" height="20" viewBox="0 0 24 20" fill="none" xmlns="http://www.w3.org/2000/svg">
<path d="M10.4595 13.2813H5.90302C5.64796 13.2813 5.43427 13.1572 5.28951 12.9366C5.11717 12.6677 5.0896 12.392 5.22057 12.1783L7.11625 9.05561V6.00184C7.11625 5.87776 7.21276 5.78125 7.33684 5.78125C7.46092 5.78125 7.55743 5.87776 7.55743 6.00184V9.11765C7.55743 9.15901 7.54364 9.20037 7.52296 9.23483L5.59971 12.4058C5.55835 12.4747 5.6066 12.5988 5.66175 12.6884C5.72379 12.7849 5.80651 12.8263 5.90302 12.8263H10.4595C10.5629 12.8263 10.6388 12.778 10.7008 12.6884C10.7629 12.5988 10.8111 12.4747 10.7629 12.4058L8.8396 9.23483C8.81892 9.20037 8.80513 9.15901 8.80513 9.11765V6.00184C8.80513 5.87776 8.90164 5.78125 9.02572 5.78125C9.1498 5.78125 9.24631 5.87776 9.24631 6.00184V9.05561L11.142 12.1783C11.273 12.392 11.2454 12.6677 11.0731 12.9366C10.9283 13.1572 10.7077 13.2813 10.4595 13.2813Z" fill="#B71D18"/>
<path d="M8.79118 10.0552C8.63953 10.0552 8.50855 9.99312 8.39136 9.94486C8.31554 9.9104 8.23282 9.87593 8.17767 9.87593C8.12252 9.87593 8.0398 9.9104 7.96398 9.94486C7.84679 10 7.71581 10.0552 7.56416 10.0552C7.4125 10.0552 7.28153 9.99312 7.16434 9.94486C7.09541 9.9104 7.02648 9.88282 6.97133 9.87593C6.85414 9.86214 6.76453 9.74496 6.78521 9.62777C6.79899 9.51058 6.91618 9.42097 7.03337 9.44165C7.15056 9.45543 7.25396 9.50369 7.34357 9.54505C7.4194 9.57951 7.50212 9.61398 7.55727 9.61398C7.61241 9.61398 7.69513 9.57951 7.77096 9.54505C7.88815 9.4899 8.01912 9.43475 8.17078 9.43475C8.32243 9.43475 8.45341 9.49679 8.57059 9.54505C8.64642 9.57951 8.72914 9.61398 8.78429 9.61398C8.83943 9.61398 8.92216 9.57951 8.99798 9.54505C9.0876 9.50369 9.19789 9.45543 9.30819 9.44165C9.42537 9.42786 9.54256 9.51058 9.55635 9.62777C9.57013 9.74496 9.48741 9.86214 9.37022 9.87593C9.31508 9.88282 9.24615 9.91729 9.17721 9.94486C9.07381 10 8.94284 10.0552 8.79118 10.0552Z" fill="#B71D18"/>
<path d="M8.99133 11.8268C8.66044 11.8268 8.3916 11.5579 8.3916 11.227C8.3916 10.8962 8.66044 10.6273 8.99133 10.6273C9.32221 10.6273 9.59105 10.8962 9.59105 11.227C9.59105 11.5579 9.32221 11.8268 8.99133 11.8268ZM8.99133 11.0685C8.90171 11.0685 8.83278 11.1374 8.83278 11.227C8.83278 11.3167 8.90171 11.3856 8.99133 11.3856C9.07405 11.3856 9.14987 11.3167 9.14987 11.227C9.14987 11.1374 9.08094 11.0685 8.99133 11.0685Z" fill="#B71D18"/>
<path d="M7.24035 12.3851C6.90947 12.3851 6.64062 12.1162 6.64062 11.7853C6.64062 11.4544 6.90947 11.1856 7.24035 11.1856C7.57123 11.1856 7.84007 11.4544 7.84007 11.7853C7.83318 12.1231 7.57123 12.3851 7.24035 12.3851ZM7.24035 11.6337C7.15074 11.6337 7.0818 11.7026 7.0818 11.7922C7.0818 11.8818 7.15074 11.9508 7.24035 11.9508C7.32307 11.9508 7.3989 11.8818 7.3989 11.7922C7.392 11.7026 7.32307 11.6337 7.24035 11.6337Z" fill="#B71D18"/>
<path d="M9.29426 6.22951H7.07459C6.95051 6.22951 6.854 6.13301 6.854 6.00893V5.08521C6.854 4.96113 6.95051 4.86462 7.07459 4.86462H9.29426C9.41834 4.86462 9.51485 4.96113 9.51485 5.08521V6.00893C9.51485 6.12611 9.41145 6.22951 9.29426 6.22951ZM7.28829 5.78834H9.06678V5.3058H7.28829V5.78834Z" fill="#B71D18"/>
<path d="M10.3215 15.9007H4.36561C4.24153 15.9007 4.14502 15.8042 4.14502 15.6801V2.72059C4.14502 2.59651 4.24153 2.5 4.36561 2.5H10.3215C11.3624 2.5 12.2172 3.34789 12.2172 4.39568V14.0119C12.2172 15.0528 11.3693 15.9007 10.3215 15.9007ZM4.5862 15.4596H10.3215C11.1211 15.4596 11.776 14.8047 11.776 14.0051V4.39568C11.776 3.59605 11.128 2.94118 10.3215 2.94118H4.5862V15.4596Z" fill="#B71D18"/>
<path d="M19.6279 15.9007H13.672C12.6311 15.9007 11.7764 15.0528 11.7764 14.0051C11.7764 13.881 11.8729 13.7845 11.997 13.7845C12.121 13.7845 12.2175 13.881 12.2175 14.0051C12.2175 14.8047 12.8724 15.4596 13.672 15.4596H19.4073V2.94118H13.672C12.8724 2.94118 12.2175 3.58915 12.2175 4.39568C12.2175 4.51976 12.121 4.61627 11.997 4.61627C11.8729 4.61627 11.7764 4.51976 11.7764 4.39568C11.7764 3.35478 12.6243 2.5 13.672 2.5H19.6279C19.752 2.5 19.8485 2.59651 19.8485 2.72059V15.687C19.8485 15.8042 19.752 15.9007 19.6279 15.9007Z" fill="#B71D18"/>
<path d="M21.4819 17.5001H2.51136C2.38728 17.5001 2.29077 17.4036 2.29077 17.2795V3.98218C2.29077 3.8581 2.38728 3.7616 2.51136 3.7616H4.36568C4.48976 3.7616 4.58627 3.8581 4.58627 3.98218C4.58627 4.10627 4.48976 4.20277 4.36568 4.20277H2.73195V17.0589H21.2683V4.20277H19.6345C19.5104 4.20277 19.4139 4.10627 19.4139 3.98218C19.4139 3.8581 19.5104 3.7616 19.6345 3.7616H21.4888C21.6129 3.7616 21.7094 3.8581 21.7094 3.98218V17.2795C21.7025 17.4036 21.606 17.5001 21.4819 17.5001Z" fill="#B71D18"/>
<path d="M18.2767 4.80244H13.3549C13.2308 4.80244 13.1343 4.70594 13.1343 4.58186C13.1343 4.45777 13.2308 4.36127 13.3549 4.36127H18.2767C18.4008 4.36127 18.4973 4.45777 18.4973 4.58186C18.4973 4.70594 18.3939 4.80244 18.2767 4.80244Z" fill="#B71D18"/>
<path d="M17.4767 6.12575H13.3475C13.2235 6.12575 13.127 6.02924 13.127 5.90516C13.127 5.78108 13.2235 5.68457 13.3475 5.68457H17.4767C17.6008 5.68457 17.6973 5.78108 17.6973 5.90516C17.6973 6.02235 17.6008 6.12575 17.4767 6.12575Z" fill="#B71D18"/>
<path d="M16.2497 7.44264H13.3475C13.2235 7.44264 13.127 7.34613 13.127 7.22205C13.127 7.09797 13.2235 7.00146 13.3475 7.00146H16.2497C16.3737 7.00146 16.4702 7.09797 16.4702 7.22205C16.4702 7.34613 16.3737 7.44264 16.2497 7.44264Z" fill="#B71D18"/>
<path d="M18.2767 8.75935H13.3549C13.2308 8.75935 13.1343 8.66285 13.1343 8.53876C13.1343 8.41468 13.2308 8.31818 13.3549 8.31818H18.2767C18.4008 8.31818 18.4973 8.41468 18.4973 8.53876C18.4973 8.66285 18.3939 8.75935 18.2767 8.75935Z" fill="#B71D18"/>
<path d="M16.808 10.0827H13.3475C13.2235 10.0827 13.127 9.98615 13.127 9.86207C13.127 9.73799 13.2235 9.64148 13.3475 9.64148H16.808C16.9321 9.64148 17.0286 9.73799 17.0286 9.86207C17.0286 9.98615 16.9321 10.0827 16.808 10.0827Z" fill="#B71D18"/>
<path d="M14.7814 11.3992H13.3475C13.2235 11.3992 13.127 11.3027 13.127 11.1786C13.127 11.0545 13.2235 10.958 13.3475 10.958H14.7814C14.9054 10.958 15.002 11.0545 15.002 11.1786C15.002 11.3027 14.9054 11.3992 14.7814 11.3992Z" fill="#B71D18"/>
<path d="M16.808 12.723H13.3475C13.2235 12.723 13.127 12.6265 13.127 12.5024C13.127 12.3784 13.2235 12.2819 13.3475 12.2819H16.808C16.9321 12.2819 17.0286 12.3784 17.0286 12.5024C17.0286 12.6196 16.9321 12.723 16.808 12.723Z" fill="#B71D18"/>
<path d="M18.2767 14.0396H13.3549C13.2308 14.0396 13.1343 13.9431 13.1343 13.819C13.1343 13.6949 13.2308 13.5984 13.3549 13.5984H18.2767C18.4008 13.5984 18.4973 13.6949 18.4973 13.819C18.4973 13.9431 18.3939 14.0396 18.2767 14.0396Z" fill="#B71D18"/>
</svg>
