<svg width="32" height="32" viewBox="0 0 32 32" fill="none" xmlns="http://www.w3.org/2000/svg">
<rect width="32" height="32" rx="16" fill="#919EAB" fill-opacity="0.08"/>
<path opacity="0.32" fill-rule="evenodd" clip-rule="evenodd" d="M17.8994 7.79333C17.5911 7.66666 17.1994 7.66666 16.4169 7.66666C15.6344 7.66666 15.2428 7.66666 14.9344 7.79333C14.524 7.96184 14.1972 8.28647 14.0261 8.69583C13.9478 8.88166 13.9178 9.09916 13.9053 9.415C13.8997 9.64383 13.8359 9.86747 13.7198 10.0648C13.6037 10.2621 13.4393 10.4265 13.2419 10.5425C13.0409 10.6543 12.8149 10.7135 12.5849 10.7146C12.3549 10.7158 12.1283 10.6589 11.9261 10.5492C11.6444 10.4008 11.4403 10.3192 11.2386 10.2925C10.7974 10.2346 10.3512 10.3532 9.99693 10.6225C9.73193 10.8242 9.5361 11.1608 9.14526 11.8333C8.7536 12.5058 8.5586 12.8417 8.51443 13.1708C8.4561 13.6092 8.5761 14.0525 8.84776 14.4033C8.9711 14.5633 9.14526 14.6975 9.41443 14.8658C9.81193 15.1133 10.0669 15.535 10.0669 16C10.0669 16.465 9.81193 16.8867 9.41526 17.1333C9.14526 17.3025 8.9711 17.4367 8.84693 17.5967C8.71283 17.7699 8.6144 17.9681 8.55733 18.1796C8.50026 18.3912 8.48568 18.6119 8.51443 18.8292C8.5586 19.1575 8.7536 19.4942 9.14526 20.1667L9.14994 20.1747C9.53849 20.8418 9.73299 21.1758 9.99693 21.3775C10.3503 21.6467 10.7969 21.765 11.2386 21.7075C11.4403 21.6808 11.6444 21.5992 11.9261 21.4508C12.1284 21.341 12.3551 21.284 12.5853 21.2851C12.8155 21.2863 13.0416 21.3456 13.2428 21.4575C13.6478 21.6908 13.8878 22.12 13.9053 22.585C13.9178 22.9017 13.9478 23.1183 14.0261 23.3042C14.1961 23.7125 14.5228 24.0375 14.9344 24.2067C15.2428 24.3333 15.6344 24.3333 16.4169 24.3333C17.1994 24.3333 17.5911 24.3333 17.8994 24.2067C18.3099 24.0382 18.6366 23.7135 18.8078 23.3042C18.8861 23.1183 18.9161 22.9017 18.9286 22.585C18.9453 22.12 19.1861 21.69 19.5919 21.4575C19.793 21.3457 20.019 21.2865 20.249 21.2854C20.479 21.2842 20.7056 21.3411 20.9078 21.4508C21.1894 21.5992 21.3936 21.6808 21.5953 21.7075C22.0369 21.7658 22.4836 21.6467 22.8369 21.3775C23.1019 21.1758 23.2978 20.8392 23.6886 20.1667C24.0803 19.4942 24.2753 19.1583 24.3194 18.8292C24.3481 18.6119 24.3333 18.3911 24.2761 18.1795C24.2189 17.968 24.1203 17.7699 23.9861 17.5967C23.8628 17.4367 23.6886 17.3025 23.4194 17.1342C23.0219 16.8867 22.7669 16.465 22.7669 16C22.7669 15.535 23.0219 15.1133 23.4186 14.8667C23.6886 14.6975 23.8628 14.5633 23.9869 14.4033C24.121 14.23 24.2195 14.0319 24.2765 13.8204C24.3336 13.6088 24.3482 13.388 24.3194 13.1708C24.2753 12.8425 24.0803 12.5058 23.6886 11.8333L23.6839 11.8253C23.2954 11.1582 23.1009 10.8242 22.8369 10.6225C22.4827 10.3532 22.0365 10.2346 21.5953 10.2925C21.3936 10.3192 21.1894 10.4008 20.9078 10.5492C20.7055 10.659 20.4787 10.716 20.2486 10.7148C20.0184 10.7137 19.7922 10.6544 19.5911 10.5425C19.3939 10.4264 19.2296 10.2619 19.1137 10.0646C18.9978 9.86734 18.9341 9.64375 18.9286 9.415C18.9161 9.09833 18.8861 8.88166 18.8078 8.69583C18.7231 8.49311 18.5992 8.30907 18.4434 8.15421C18.2875 7.99936 18.1027 7.87673 17.8994 7.79333ZM18.9355 16C18.9355 17.3808 17.8071 18.5 16.4163 18.5C15.0246 18.5 13.8971 17.3808 13.8971 16C13.8971 14.6192 15.0246 13.5 16.4163 13.5C17.808 13.5 18.9355 14.6192 18.9355 16Z" fill="#0E34A0"/>
<path d="M18.9353 16C18.9353 17.3808 17.807 18.5 16.4161 18.5C15.0245 18.5 13.897 17.3808 13.897 16C13.897 14.6192 15.0245 13.5 16.4161 13.5C17.8078 13.5 18.9353 14.6192 18.9353 16Z" fill="#0E34A0"/>
</svg>
